<svg viewBox="0 0 349.99999999999994 170.59771143893533" height="170.59771143893533" width="349.99999999999994" style="width: 350px; height: 170.598px; position: absolute; top: 50%; left: 50%; z-index: 0; cursor: pointer; overflow: visible; transform: translate(-50%, -50%) scale(0.548571);" xmlns="http://www.w3.org/2000/svg"><defs id="SvgjsDefs1160"></defs><g id="SvgjsG1161" featurekey="symbolFeature-0" transform="matrix(5.843316218754017,0,0,5.843316218754017,104.88313366735306,-29.742480445077245)" fill="#83b2a3"><g xmlns="http://www.w3.org/2000/svg"><path d="M11.842,8.863c-0.853,0-5.144,0.04-5.921,0.814C5.787,9.812,5.709,9.999,5.709,10.19v5.966   c0,0.189,0.073,0.369,0.212,0.512c0.457,0.456,2.375,0.697,5.671,0.722v0.345l-2.609,0.38c-0.219,0.031-0.37,0.234-0.338,0.453   c0.031,0.219,0.237,0.37,0.453,0.338l2.895-0.421l2.895,0.421c0.02,0.003,0.039,0.005,0.059,0.005c0.195,0,0.366-0.144,0.395-0.343   c0.032-0.219-0.119-0.422-0.338-0.453l-2.609-0.38v-0.342c4.952-0.017,5.475-0.531,5.671-0.726   c0.137-0.137,0.212-0.318,0.212-0.512v-5.966c0-0.193-0.075-0.375-0.212-0.512C17.258,8.873,12.063,8.863,11.842,8.863z    M12.142,16.593c-3.341,0-5.375-0.248-5.632-0.438l-0.023-5.912c0.287-0.28,2.508-0.58,5.355-0.58c2.313,0,5.288,0.254,5.633,0.525   l0.022,5.911C17.307,16.284,15.963,16.593,12.142,16.593z"></path><path d="M5.142,12.167c-3.073-0.01-4.184-0.271-4.321-0.342L0.787,6.392C1.058,6.15,3.016,5.891,5.498,5.891   c2.018,0,4.633,0.22,4.942,0.419v1.962c0,0.221,0.18,0.4,0.4,0.4s0.4-0.18,0.4-0.4V6.31c0-0.181-0.073-0.357-0.202-0.485   C10.324,5.111,5.99,5.09,5.498,5.09c-1.065,0-4.594,0.054-5.275,0.734C0.094,5.954,0.02,6.13,0.02,6.311v5.515   c0,0.181,0.071,0.352,0.201,0.485c0.177,0.176,0.645,0.644,4.919,0.657h0.001c0.221,0,0.399-0.179,0.4-0.399   C5.542,12.348,5.363,12.168,5.142,12.167z"></path><path d="M5.071,13.136l-2.125,0.38c-0.218,0.039-0.362,0.246-0.323,0.464c0.034,0.193,0.203,0.33,0.394,0.33   c0.022,0,0.047-0.002,0.07-0.007l2.125-0.38c0.218-0.039,0.362-0.246,0.323-0.464C5.497,13.244,5.292,13.089,5.071,13.136z"></path><path d="M18.502,5.09c-0.492,0-4.826,0.021-5.542,0.734c-0.128,0.128-0.201,0.305-0.201,0.485v1.962c0,0.221,0.18,0.4,0.4,0.4   s0.4-0.18,0.4-0.4l-0.038-1.877c0.348-0.284,2.963-0.504,4.98-0.504c2.481,0,4.439,0.259,4.677,0.42l0.035,5.433   c-0.174,0.153-1.298,0.414-4.403,0.424c-0.222,0.001-0.399,0.181-0.399,0.401c0.001,0.221,0.18,0.399,0.4,0.399h0.001   c4.322-0.014,4.789-0.481,4.968-0.66c0.128-0.131,0.199-0.302,0.199-0.482V6.311c0-0.181-0.074-0.357-0.202-0.486   C23.096,5.144,19.568,5.09,18.502,5.09z"></path><path d="M21.053,13.516l-2.171-0.38c-0.223-0.045-0.426,0.107-0.463,0.324c-0.038,0.218,0.107,0.425,0.324,0.463l2.171,0.38   c0.023,0.005,0.047,0.007,0.069,0.007c0.191,0,0.36-0.137,0.394-0.331C21.416,13.761,21.27,13.554,21.053,13.516z"></path></g></g><g id="SvgjsG1162" featurekey="nameFeature-0" transform="matrix(2.3608450651168402,0,0,2.3608450651168402,0,75.59730205603364)" fill="#83b2a3"><path d="M13.84 11.36 l0 3.84 l-4.76 0 l0 24.84 l-3.84 0 l0 -24.84 l-5.24 0 l0 -3.84 l13.84 0 z M21.188 11.36 l0 28.48 l-3.8 0 l0 -28.48 l3.8 0 z M39.056 11.36 l0 3.84 l-4.76 0 l0 24.84 l-3.84 0 l0 -24.84 l-5.24 0 l0 -3.84 l13.84 0 z M46.843999999999994 36.24 l5.52 0 l0 3.76 l-9.28 0 l0 -28.72 l3.76 0 l0 24.96 z M65.71199999999999 24.92 l-5.52 0 l0 11.28 l5.56 0 l0 3.8 l-9.36 0 l0 -28.56 l9.36 0 l0 3.8 l-5.56 0 l0 5.88 l5.52 0 l0 3.8 z M75.26 40.24 c-3.04 0 -5.48 -2.48 -5.48 -5.48 l0 -4.36 l3.88 0 l0 4.36 c0 0.88 0.72 1.6 1.6 1.6 s1.56 -0.72 1.56 -1.6 l0 -3.8 l-7.04 -9.72 l0 -4.96 c0 -3.04 2.44 -5.52 5.48 -5.52 c3 0 5.44 2.48 5.44 5.52 l0 4.32 l-3.88 0 l0 -4.32 c0 -0.92 -0.68 -1.6 -1.56 -1.6 s-1.6 0.68 -1.6 1.6 l0 3.64 l7.04 9.72 l0 5.12 c0 3 -2.44 5.48 -5.44 5.48 z M97.32800000000002 11.36 l0 3.84 l-4.76 0 l0 24.84 l-3.84 0 l0 -24.84 l-5.24 0 l0 -3.84 l13.84 0 z M105.59600000000002 40.04 c-3 0 -5.4 -2.44 -5.4 -5.4 l0 -17.96 c0 -2.96 2.4 -5.36 5.4 -5.36 c2.96 0 5.36 2.4 5.36 5.36 l0 17.96 c0 2.96 -2.4 5.4 -5.36 5.4 z M105.59600000000002 15.120000000000001 c-0.88 0 -1.56 0.72 -1.56 1.56 l0 17.96 c0 0.88 0.68 1.56 1.56 1.56 c0.84 0 1.56 -0.68 1.56 -1.56 l0 -17.96 c0 -0.84 -0.72 -1.56 -1.56 -1.56 z M125.94400000000002 40.08 l-4.08 0 l-2.2 -6.04 l-0.88 0 l0 6.04 l-3.8 0 l0 -28.64 l5.96 0 c2.64 0 4.76 2.12 4.76 4.76 l0 13.08 c0 1.72 -0.88 3.2 -2.24 4.04 z M118.784 15.239999999999998 l0 15 l2.16 0 c0.52 0 0.96 -0.44 0.96 -0.96 l0 -13.08 c0 -0.52 -0.44 -0.96 -0.96 -0.96 l-2.16 0 z M141.572 11.36 l6.68 0 l0 28.56 l-3.76 0 l0 -22.6 l-3.56 22.68 l-1.48 0 l-0.36 -0.08 l-0.32 0.08 l-1.48 0 l-3.52 -22.68 l0 22.6 l-3.8 0 l0 -28.56 l6.72 0 l2.44 16.16 z"></path></g></svg>